<svg xmlns="http://www.w3.org/2000/svg" xmlns:xlink="http://www.w3.org/1999/xlink" width="270" zoomAndPan="magnify" viewBox="0 0 202.5 248.250006" height="331" preserveAspectRatio="xMidYMid meet" version="1.0"><defs><g/><clipPath id="f8d49fe430"><path d="M 0.0546875 30 L 96 30 L 96 86 L 0.0546875 86 Z M 0.0546875 30 " clip-rule="nonzero"/></clipPath><clipPath id="624891a46b"><path d="M 52 99 L 197 99 L 197 229.554688 L 52 229.554688 Z M 52 99 " clip-rule="nonzero"/></clipPath><clipPath id="58347d9f7c"><path d="M 75 0 L 201.199219 0 L 201.199219 85 L 75 85 Z M 75 0 " clip-rule="nonzero"/></clipPath><clipPath id="8c1701852f"><path d="M 0.925781 10 L 95 10 L 95 11 L 0.925781 11 Z M 0.925781 10 " clip-rule="nonzero"/></clipPath><clipPath id="5645872ab6"><rect x="0" width="98" y="0" height="13"/></clipPath></defs><g clip-path="url(#f8d49fe430)"><path fill="#c8ff01" d="M 55.039062 43.890625 L 10.707031 46.703125 C 4.734375 47.082031 0.0859375 52.03125 0.0859375 58.015625 C 0.0859375 63.996094 4.734375 68.945312 10.707031 69.328125 L 55.039062 72.140625 L 53.035156 78.539062 C 51.59375 83.164062 56.574219 87.160156 60.769531 84.738281 L 93.027344 62.617188 C 96.566406 60.566406 96.566406 55.453125 93.027344 53.402344 L 60.769531 31.289062 C 56.574219 28.871094 51.59375 32.863281 53.035156 37.488281 Z M 55.039062 43.890625 " fill-opacity="1" fill-rule="nonzero"/></g><g clip-path="url(#624891a46b)"><path fill="#c8ff01" d="M 52.070312 109.722656 C 52.546875 114.527344 56.945312 117.996094 61.761719 117.996094 L 63.359375 117.996094 C 63.359375 117.996094 76.921875 211.351562 76.921875 211.351562 L 75.921875 211.351562 C 70.523438 211.351562 66.195312 216 66.753906 221.519531 C 67.230469 226.324219 71.628906 229.792969 76.457031 229.792969 L 172.496094 229.792969 C 177.894531 229.792969 182.222656 225.144531 181.664062 219.625 C 181.1875 214.820312 176.789062 211.351562 171.960938 211.351562 L 171.484375 211.351562 C 171.484375 211.351562 185.046875 117.996094 185.046875 117.996094 L 187.171875 117.996094 C 192.570312 117.996094 196.898438 113.347656 196.335938 107.828125 C 195.859375 103.023438 191.460938 99.554688 186.644531 99.554688 L 61.234375 99.554688 C 55.835938 99.554688 51.507812 104.203125 52.070312 109.722656 Z M 144.566406 190.457031 L 153.199219 127.160156 C 153.628906 124.015625 156.320312 121.667969 159.492188 121.667969 C 163.34375 121.667969 166.308594 125.0625 165.785156 128.878906 L 157.15625 192.171875 C 156.726562 195.355469 153.996094 197.667969 150.875 197.667969 C 150.585938 197.667969 150.300781 197.644531 150.003906 197.609375 C 146.523438 197.132812 144.089844 193.9375 144.566406 190.457031 Z M 117.855469 128.019531 C 117.855469 124.515625 120.703125 121.667969 124.210938 121.667969 C 127.714844 121.667969 130.5625 124.515625 130.5625 128.019531 L 130.5625 191.316406 C 130.5625 195.175781 127.117188 198.226562 123.148438 197.585938 C 120.023438 197.070312 117.867188 194.140625 117.867188 190.980469 L 117.867188 128.019531 Z M 88.925781 121.667969 C 92.097656 121.667969 94.789062 124.015625 95.21875 127.160156 L 103.851562 190.457031 C 104.328125 193.9375 101.894531 197.132812 98.414062 197.609375 C 98.128906 197.644531 97.832031 197.667969 97.542969 197.667969 C 94.421875 197.667969 91.691406 195.355469 91.261719 192.171875 L 82.632812 128.878906 C 82.109375 125.0625 85.074219 121.667969 88.925781 121.667969 Z M 88.925781 121.667969 " fill-opacity="1" fill-rule="nonzero"/></g><g clip-path="url(#58347d9f7c)"><path fill="#c8ff01" d="M 200.304688 79.21875 C 202.414062 74.882812 200.484375 69.625 196.382812 67.097656 L 177.027344 55.1875 C 173.570312 53.066406 172.496094 48.539062 174.617188 45.09375 L 177.527344 40.359375 C 181.246094 34.316406 179.363281 26.402344 173.320312 22.683594 L 140.085938 2.242188 C 134.042969 -1.476562 126.128906 0.40625 122.410156 6.449219 L 119.5 11.179688 C 117.378906 14.636719 112.847656 15.710938 109.40625 13.589844 L 89.59375 1.40625 C 84.992188 -1.429688 78.878906 0.273438 76.457031 5.257812 C 74.347656 9.59375 76.277344 14.851562 80.378906 17.378906 L 187.183594 83.082031 C 191.78125 85.917969 197.898438 84.214844 200.316406 79.230469 Z M 168.144531 34.578125 L 165.238281 39.3125 C 163.117188 42.769531 158.585938 43.839844 155.140625 41.71875 L 131.289062 27.046875 C 127.832031 24.925781 126.761719 20.394531 128.882812 16.949219 L 131.789062 12.21875 C 132.328125 11.359375 133.445312 11.085938 134.316406 11.621094 L 167.550781 32.066406 C 168.40625 32.601562 168.683594 33.722656 168.144531 34.589844 Z M 168.144531 34.578125 " fill-opacity="1" fill-rule="nonzero"/></g><g transform="matrix(1, 0, 0, 1, 69, 229)"><g clip-path="url(#5645872ab6)"><g clip-path="url(#8c1701852f)"><g fill="#000000" fill-opacity="1"><g transform="translate(0.93986, 10.084156)"><g/></g><g transform="translate(4.050951, 10.084156)"><g/></g><g transform="translate(7.162042, 10.084156)"><g/></g><g transform="translate(10.273133, 10.084156)"><g/></g><g transform="translate(13.384225, 10.084156)"><g/></g><g transform="translate(16.495316, 10.084156)"><g/></g><g transform="translate(19.606407, 10.084156)"><g/></g><g transform="translate(22.717498, 10.084156)"><g/></g><g transform="translate(25.828589, 10.084156)"><g/></g><g transform="translate(28.93968, 10.084156)"><g/></g><g transform="translate(32.050772, 10.084156)"><g/></g><g transform="translate(35.161863, 10.084156)"><g/></g><g transform="translate(38.272954, 10.084156)"><g/></g><g transform="translate(41.384045, 10.084156)"><g/></g><g transform="translate(44.495136, 10.084156)"><g/></g><g transform="translate(47.606228, 10.084156)"><g/></g><g transform="translate(50.717319, 10.084156)"><g/></g><g transform="translate(53.82841, 10.084156)"><g/></g><g transform="translate(56.939501, 10.084156)"><g/></g><g transform="translate(60.050592, 10.084156)"><g/></g><g transform="translate(63.161683, 10.084156)"><g/></g><g transform="translate(66.272775, 10.084156)"><g/></g><g transform="translate(69.383866, 10.084156)"><g/></g><g transform="translate(72.494957, 10.084156)"><g/></g><g transform="translate(75.606048, 10.084156)"><g/></g><g transform="translate(78.717139, 10.084156)"><g/></g><g transform="translate(81.82823, 10.084156)"><g/></g><g transform="translate(84.939322, 10.084156)"><g/></g><g transform="translate(88.050413, 10.084156)"><g/></g><g transform="translate(91.161504, 10.084156)"><g/></g><g transform="translate(94.272595, 10.084156)"><g/></g></g></g></g></g></svg>