<svg xmlns="http://www.w3.org/2000/svg" xmlns:xlink="http://www.w3.org/1999/xlink" width="308" zoomAndPan="magnify" viewBox="0 0 230.87999 158.249993" height="211" preserveAspectRatio="xMidYMid meet" version="1.0"><defs><g/><clipPath id="d43c545b67"><path d="M 0.484375 58 L 229.648438 58 L 229.648438 79 L 0.484375 79 Z M 0.484375 58 " clip-rule="nonzero"/></clipPath><clipPath id="e2dd0e4691"><path d="M 0.484375 117 L 229.648438 117 L 229.648438 136.601562 L 0.484375 136.601562 Z M 0.484375 117 " clip-rule="nonzero"/></clipPath><clipPath id="75ca9db8e0"><path d="M 0.484375 0 L 229.648438 0 L 229.648438 20 L 0.484375 20 Z M 0.484375 0 " clip-rule="nonzero"/></clipPath></defs><g clip-path="url(#d43c545b67)"><path fill="#b4ff00" d="M 220.246094 78.179688 L 10.222656 78.179688 C 4.878906 78.179688 0.546875 73.847656 0.546875 68.503906 C 0.546875 63.160156 4.878906 58.828125 10.222656 58.828125 L 220.246094 58.828125 C 225.589844 58.828125 229.921875 63.160156 229.921875 68.503906 C 229.921875 73.847656 225.589844 78.179688 220.246094 78.179688 Z M 220.246094 78.179688 " fill-opacity="1" fill-rule="nonzero"/></g><g clip-path="url(#e2dd0e4691)"><path fill="#b4ff00" d="M 220.246094 136.910156 L 10.222656 136.910156 C 4.878906 136.910156 0.546875 132.582031 0.546875 127.234375 C 0.546875 121.890625 4.878906 117.558594 10.222656 117.558594 L 220.246094 117.558594 C 225.589844 117.558594 229.921875 121.890625 229.921875 127.234375 C 229.921875 132.582031 225.589844 136.910156 220.246094 136.910156 Z M 220.246094 136.910156 " fill-opacity="1" fill-rule="nonzero"/></g><g clip-path="url(#75ca9db8e0)"><path fill="#b4ff00" d="M 220.246094 19.445312 L 10.222656 19.445312 C 4.878906 19.445312 0.546875 15.113281 0.546875 9.769531 C 0.546875 4.425781 4.878906 0.09375 10.222656 0.09375 L 220.246094 0.09375 C 225.589844 0.09375 229.921875 4.425781 229.921875 9.769531 C 229.921875 15.113281 225.589844 19.445312 220.246094 19.445312 Z M 220.246094 19.445312 " fill-opacity="1" fill-rule="nonzero"/></g><g fill="#000000" fill-opacity="1"><g transform="translate(70.654498, 148.942944)"><g/></g></g><g fill="#000000" fill-opacity="1"><g transform="translate(74.309766, 148.942944)"><g/></g></g><g fill="#000000" fill-opacity="1"><g transform="translate(77.965035, 148.942944)"><g/></g></g><g fill="#000000" fill-opacity="1"><g transform="translate(81.620303, 148.942944)"><g/></g></g><g fill="#000000" fill-opacity="1"><g transform="translate(85.275571, 148.942944)"><g/></g></g><g fill="#000000" fill-opacity="1"><g transform="translate(88.93084, 148.942944)"><g/></g></g><g fill="#000000" fill-opacity="1"><g transform="translate(92.586108, 148.942944)"><g/></g></g><g fill="#000000" fill-opacity="1"><g transform="translate(96.241377, 148.942944)"><g/></g></g><g fill="#000000" fill-opacity="1"><g transform="translate(99.896645, 148.942944)"><g/></g></g><g fill="#000000" fill-opacity="1"><g transform="translate(103.551913, 148.942944)"><g/></g></g><g fill="#000000" fill-opacity="1"><g transform="translate(107.207182, 148.942944)"><g/></g></g><g fill="#000000" fill-opacity="1"><g transform="translate(110.86245, 148.942944)"><g/></g></g><g fill="#000000" fill-opacity="1"><g transform="translate(114.517718, 148.942944)"><g/></g></g><g fill="#000000" fill-opacity="1"><g transform="translate(118.172987, 148.942944)"><g/></g></g><g fill="#000000" fill-opacity="1"><g transform="translate(121.828255, 148.942944)"><g/></g></g><g fill="#000000" fill-opacity="1"><g transform="translate(125.483523, 148.942944)"><g/></g></g><g fill="#000000" fill-opacity="1"><g transform="translate(129.138792, 148.942944)"><g/></g></g><g fill="#000000" fill-opacity="1"><g transform="translate(132.79406, 148.942944)"><g/></g></g><g fill="#000000" fill-opacity="1"><g transform="translate(136.449328, 148.942944)"><g/></g></g><g fill="#000000" fill-opacity="1"><g transform="translate(140.104597, 148.942944)"><g/></g></g><g fill="#000000" fill-opacity="1"><g transform="translate(143.759865, 148.942944)"><g/></g></g><g fill="#000000" fill-opacity="1"><g transform="translate(147.415133, 148.942944)"><g/></g></g><g fill="#000000" fill-opacity="1"><g transform="translate(151.070402, 148.942944)"><g/></g></g><g fill="#000000" fill-opacity="1"><g transform="translate(154.72567, 148.942944)"><g/></g></g><g fill="#000000" fill-opacity="1"><g transform="translate(158.380938, 148.942944)"><g/></g></g><g fill="#000000" fill-opacity="1"><g transform="translate(162.036207, 148.942944)"><g/></g></g><g fill="#000000" fill-opacity="1"><g transform="translate(165.691475, 148.942944)"><g/></g></g><g fill="#000000" fill-opacity="1"><g transform="translate(169.346743, 148.942944)"><g/></g></g><g fill="#000000" fill-opacity="1"><g transform="translate(173.002012, 148.942944)"><g/></g></g><g fill="#000000" fill-opacity="1"><g transform="translate(176.65728, 148.942944)"><g/></g></g></svg>