<svg xmlns="http://www.w3.org/2000/svg" xmlns:xlink="http://www.w3.org/1999/xlink" width="221" zoomAndPan="magnify" viewBox="0 0 165.75 190.499994" height="254" preserveAspectRatio="xMidYMid meet" version="1.0"><defs><g/><clipPath id="3f4bf93e63"><path d="M 0.09375 0 L 165.410156 0 L 165.410156 185 L 0.09375 185 Z M 0.09375 0 " clip-rule="nonzero"/></clipPath><clipPath id="4f692a5e89"><path d="M 3 1 L 162 1 L 162 158.929688 L 3 158.929688 Z M 3 1 " clip-rule="nonzero"/></clipPath><clipPath id="c04ada607c"><rect x="0" width="166" y="0" height="185"/></clipPath></defs><g clip-path="url(#3f4bf93e63)"><g transform="matrix(1, 0, 0, 1, 0.000000000000000014, 0)"><g clip-path="url(#c04ada607c)"><g clip-path="url(#4f692a5e89)"><path fill="#c8ff01" d="M 104.695312 80.445312 L 156.644531 28.496094 C 162.804688 22.339844 162.804688 12.351562 156.644531 6.191406 C 150.484375 0.0351562 140.507812 0.0351562 134.347656 6.191406 L 82.398438 58.140625 L 30.449219 6.199219 C 24.292969 0.0351562 14.304688 0.0351562 8.144531 6.199219 C 1.988281 12.351562 1.988281 22.339844 8.144531 28.5 L 60.09375 80.445312 L 8.019531 132.519531 C 1.863281 138.675781 1.863281 148.664062 8.019531 154.816406 C 11.09375 157.898438 15.136719 159.4375 19.167969 159.4375 C 23.199219 159.4375 27.242188 157.898438 30.320312 154.816406 L 82.390625 102.746094 L 134.335938 154.691406 C 137.417969 157.773438 141.453125 159.3125 145.484375 159.3125 C 149.515625 159.3125 153.554688 157.773438 156.632812 154.691406 C 162.792969 148.535156 162.792969 138.550781 156.632812 132.394531 Z M 104.695312 80.445312 " fill-opacity="1" fill-rule="nonzero"/></g><g fill="#000000" fill-opacity="1"><g transform="translate(51.620277, 181.536057)"><g/></g><g transform="translate(54.732598, 181.536057)"><g/></g><g transform="translate(57.844919, 181.536057)"><g/></g><g transform="translate(60.957241, 181.536057)"><g/></g><g transform="translate(64.069562, 181.536057)"><g/></g><g transform="translate(67.181883, 181.536057)"><g/></g><g transform="translate(70.294204, 181.536057)"><g/></g><g transform="translate(73.406526, 181.536057)"><g/></g><g transform="translate(76.518847, 181.536057)"><g/></g><g transform="translate(79.631168, 181.536057)"><g/></g><g transform="translate(82.74349, 181.536057)"><g/></g><g transform="translate(85.855811, 181.536057)"><g/></g><g transform="translate(88.968132, 181.536057)"><g/></g><g transform="translate(92.080453, 181.536057)"><g/></g><g transform="translate(95.192775, 181.536057)"><g/></g><g transform="translate(98.305096, 181.536057)"><g/></g><g transform="translate(101.417417, 181.536057)"><g/></g><g transform="translate(104.529738, 181.536057)"><g/></g><g transform="translate(107.64206, 181.536057)"><g/></g><g transform="translate(110.754381, 181.536057)"><g/></g><g transform="translate(113.866702, 181.536057)"><g/></g><g transform="translate(116.979023, 181.536057)"><g/></g><g transform="translate(120.091345, 181.536057)"><g/></g><g transform="translate(123.203666, 181.536057)"><g/></g><g transform="translate(126.315987, 181.536057)"><g/></g><g transform="translate(129.428308, 181.536057)"><g/></g><g transform="translate(132.54063, 181.536057)"><g/></g><g transform="translate(135.652951, 181.536057)"><g/></g><g transform="translate(138.765272, 181.536057)"><g/></g><g transform="translate(141.877593, 181.536057)"><g/></g><g transform="translate(144.989915, 181.536057)"><g/></g></g></g></g></g></svg>